<?xml version="1.0" encoding="utf-8"?>
<!-- Generator: Adobe Illustrator 25.2.0, SVG Export Plug-In . SVG Version: 6.00 Build 0)  -->
<svg version="1.1" id="Calque_1" xmlns="http://www.w3.org/2000/svg" xmlns:xlink="http://www.w3.org/1999/xlink" x="0px" y="0px"
	 viewBox="0 0 493 483" style="enable-background:new 0 0 493 483;" xml:space="preserve">
<g>
	<path d="M379.76-62.46c12.03,22.66,21.61,46.35,29.61,70.7c12.89,39.25,21.5,79.49,27.76,120.28c7,45.57,11.09,91.43,13.74,137.43
		c5.04,87.47,5.24,175.05,5.44,262.62c0.03,11.82,0,23.63,0,35.65c-27.19,0-54.12,0-82.06,0c0-47.42,0.43-94.74-0.12-142.04
		c-0.55-47.21-2.08-94.4-3.19-141.85c-32.74,0-64.49,0-96.57,0c0,94.63,0,189.16,0,283.89c-26.13,0-51.93,0-78.2,0
		c0-1.25,0-2.46,0-3.68c0-206.53,0-413.05,0.01-619.58c0-1.15,0.09-2.29,0.14-3.44C257.46-62.46,318.61-62.46,379.76-62.46z
		 M274.49,13.23c0,64.33,0,128.05,0,191.92c30.09,0,59.98,0,89.97,0c0-0.73,0.04-1.18-0.01-1.63c-3.19-31.19-7.19-62.26-13.08-93.07
		c-6.1-31.93-13.97-63.39-25.27-93.94c-0.99-2.68-2.25-3.37-4.94-3.34c-12.29,0.14-24.59,0.06-36.88,0.06
		C281.1,13.23,277.91,13.23,274.49,13.23z"/>
	<path d="M26.66-62.46c-0.07,1.72-0.21,3.43-0.21,5.15c-0.01,21.95-0.01,43.89-0.01,65.84c0,1.36,0,2.73,0,4.61
		c-32.34,0-64.42,0-96.68,0c0,64.24,0,127.95,0,192.15c24.59,0,49.09,0,73.84,0c0,25.1,0,49.71,0,74.78c-24.6,0-49.12,0-73.98,0
		c0,94.95,0,189.46,0,284.38c-29.26,0-58.18,0-87.09,0c0-208.97,0-417.93,0-626.9C-96.05-62.46-34.7-62.46,26.66-62.46z"/>
	<path d="M670.11-62.46c0,25.05,0,50.1,0,75.53c-22.76,0-45.34,0-68.44,0c0,183.95,0,367.53,0,551.19c-29.32,0-58.11,0-87.17,0
		c0-183.59,0-367,0-550.88c-23.27,0-46.29,0-69.91,0c0-25.59,0-50.71,0-75.83C519.76-62.46,594.94-62.46,670.11-62.46z"/>
	<path d="M149.42-62.46c-0.03,1.61-0.07,3.22-0.07,4.82c0,205.63,0,411.26,0,616.89c0,1.59,0,3.17,0,4.97c-30.01,0-59.73,0-89.96,0
		c0-1.65,0-3.33,0-5.01c0-205.52,0-411.03-0.01-616.55c0-1.71-0.19-3.42-0.3-5.13C89.19-62.46,119.3-62.46,149.42-62.46z"/>
</g>
</svg>
