<?xml version="1.0" encoding="UTF-8"?>
<!DOCTYPE svg PUBLIC "-//W3C//DTD SVG 1.1//EN" "http://www.w3.org/Graphics/SVG/1.1/DTD/svg11.dtd">
<!-- Creator: CorelDRAW X8 -->
<svg xmlns="http://www.w3.org/2000/svg" xml:space="preserve" width="6.66666in" height="6.66666in" version="1.1" style="shape-rendering:geometricPrecision; text-rendering:geometricPrecision; image-rendering:optimizeQuality; fill-rule:evenodd; clip-rule:evenodd"
viewBox="0 0 6667 6667"
 xmlns:xlink="http://www.w3.org/1999/xlink">
 <defs>
  <style type="text/css">
   <![CDATA[
    .fil0 {fill:#FEFEFE}
    .fil1 {fill:#373435}
    .fil3 {fill:#C7D9E6}
    .fil2 {fill:#373435;fill-rule:nonzero}
   ]]>
  </style>
 </defs>
 <g id="Layer_x0020_1">
  <metadata id="CorelCorpID_0Corel-Layer"/>
  <rect class="fil0" x="11" y="12" width="6667" height="6667"/>
  <g id="_2036592603472">
   <path class="fil1" d="M3401 5684l-60 -107c-22,-38 -43,-78 -64,-118 -72,-138 -341,-654 -330,-752 15,-148 204,-658 265,-826 17,-50 82,-224 105,-260 9,19 20,103 23,130 5,38 -72,346 -83,400 -39,180 -73,362 -102,547 -16,106 -32,175 2,276 45,135 121,339 177,466 24,55 79,175 67,244zm-2294 -4610c47,4 172,-16 225,-21 150,-16 160,2 161,-87 1,-47 1,-73 -51,-68 -80,8 -274,24 -334,36l-1 140zm3438 -199c-21,16 -13,127 -13,161 -1,108 -24,95 235,113 198,14 171,48 173,-157 1,-83 10,-93 -73,-99 -49,-4 -297,-37 -322,-18zm-2539 2749c66,-64 302,-237 349,-284 -9,28 -103,158 -126,186 -35,45 -34,40 -100,61 -38,12 -84,31 -123,37zm-308 -203c-12,-7 -86,-96 -95,-112 20,-39 65,-72 125,-79l-30 191zm416 -358c54,-16 131,15 186,28 63,15 123,31 185,48 34,10 45,18 63,48 42,69 20,69 -23,152 -14,26 -28,50 -43,76 -28,49 -54,93 -83,143 -29,48 -51,105 -106,125 -55,20 -317,99 -338,118 -6,33 24,192 34,218 58,3 161,-39 198,-34 -7,0 1,-3 -8,5 -30,28 -50,52 -92,64 -207,57 -132,61 -211,-217 -24,-87 -74,-147 -39,-254 14,15 88,82 109,95 33,21 277,-62 305,-97 38,-48 207,-272 206,-328 -3,-86 -76,-91 -188,-131 -30,-11 -140,-48 -155,-59zm791 -260c20,43 48,162 60,215 29,131 28,115 -19,230 -28,67 -58,129 -86,195 -44,105 -130,279 -183,382 -69,134 -234,254 -340,363 -32,32 -41,33 -52,94 -40,239 -31,244 97,432 92,136 224,315 329,443 10,13 21,26 31,40 40,52 84,105 129,154l65 76c20,26 46,46 68,70 54,59 126,64 151,135l-193 -98c-105,-61 -401,-415 -491,-529 -101,-128 -224,-277 -306,-418 -47,-81 -27,-147 -15,-247 10,-83 16,-179 57,-235l67 -78c24,-26 46,-51 67,-79 41,-54 87,-107 129,-160 102,-129 286,-371 371,-507 57,-91 88,-118 79,-213 -6,-62 -34,-214 -15,-265zm1285 -116c64,22 106,72 152,128l66 74c62,65 271,336 308,400 63,107 48,384 42,516 -9,227 -42,404 -92,614 -24,101 -31,95 -119,160 -80,58 -166,134 -238,186 -25,18 -52,42 -77,62 -25,21 -54,44 -80,65l-191 158c-81,66 -201,159 -251,244 -17,29 -34,59 -50,89 -12,23 -37,71 -53,91 -16,-16 -88,-206 -102,-244 -44,-117 -34,-117 27,-270 33,-83 69,-166 104,-246 17,-39 94,-217 112,-240 3,74 -153,482 -146,604 3,50 29,165 49,204 34,-31 21,-63 107,-140l228 -202c13,-11 18,-19 33,-31 21,-16 48,-40 66,-57 19,-18 46,-39 68,-57l404 -336c49,-66 47,-611 46,-704 -3,-212 -30,-233 -131,-359 -37,-48 -76,-89 -116,-131 -65,-71 -56,-43 -81,-164 -15,-70 -27,-138 -41,-205 -14,-65 -37,-147 -44,-209zm-2041 -219c-9,-78 6,-97 72,-91 37,3 37,72 -10,84 -19,5 -44,12 -62,7zm1869 -213c96,-49 214,-94 317,-136 75,-31 98,-47 180,-11 78,34 229,116 303,160 48,29 98,58 143,88 48,32 92,60 139,93 72,50 101,56 113,117 39,202 43,433 29,642 -6,96 -10,107 -48,181 -56,108 -267,483 -358,568 0,-27 10,-177 17,-189l56 -45c23,-19 35,-24 51,-51 50,-79 102,-176 144,-265 70,-147 67,-161 49,-337 -12,-119 -26,-244 -54,-360 -17,-69 -41,-72 -104,-99 -49,-21 -93,-41 -143,-62 -91,-39 -163,-108 -237,-172 -37,-32 -74,-60 -114,-91 -127,-97 -101,-80 -301,-33 -61,14 -119,20 -182,2zm-896 2c0,-20 24,-55 36,-73 18,-29 45,-29 81,-37l385 -72c46,-8 56,3 91,20 40,20 39,20 49,69 6,28 16,68 18,96 3,40 -19,62 -33,87 -112,193 -120,84 -71,333 12,60 34,140 39,198 -53,-27 -64,-88 -80,-142 -17,-56 -34,-111 -51,-169 -28,-99 -27,-81 25,-149 17,-21 31,-38 48,-60 61,-81 71,-81 38,-144 -47,-90 -137,-40 -231,-3 -54,21 -106,38 -159,60 -44,19 -45,14 -92,6 -29,-6 -70,-12 -93,-20zm-1305 302c48,-2 105,-26 154,-33 29,-4 44,11 68,17 34,7 201,-36 232,-47 42,-15 84,-53 116,-75 0,26 -36,55 -51,70 -45,45 -199,92 -263,117 -61,23 -123,46 -185,67 -63,21 -160,42 -172,83 121,10 175,-1 237,62l137 159 -348 62c-84,16 -136,15 -150,64 -16,54 -24,120 -42,173 -52,-15 -113,-108 -150,-155 -14,-17 -38,-45 -21,-73l100 -109c32,-32 61,-81 68,-148 -63,23 -44,62 -93,96 -42,29 -72,57 -113,80 -24,-17 -39,-33 -34,-72 7,-52 128,-140 171,-173l263 -194c134,-91 117,-152 227,-229 29,-21 265,-163 284,-164 -10,4 -13,17 -21,25l-98 75c0,0 -2,1 -3,2 -68,50 -64,36 -77,122 -16,105 -3,81 -98,116 -73,26 -97,34 -138,82zm303 -229c19,-50 80,-18 141,-94 15,-18 23,-27 37,-43 76,-92 73,-111 168,-154 152,-70 320,-162 496,-137 10,20 -27,69 -46,101 -124,207 -80,193 -242,241 -279,83 -232,87 -554,86zm148 -277c27,-50 84,-76 133,-108 43,-29 222,-167 271,-212 30,-28 67,-116 100,-136 69,-40 793,-26 923,-22 78,3 157,7 235,14 93,8 113,16 187,52 169,84 310,159 471,251 53,30 106,57 148,94l240 241c-56,-5 -66,-11 -105,-38 -88,-59 -365,-238 -451,-249 -64,-7 -206,-8 -257,-24 -33,-10 -63,-30 -96,-45 -122,-56 -183,-103 -317,-99 -91,3 -181,2 -272,6 -72,2 -195,16 -258,-5 122,-23 264,-32 389,-44l399 -29c-7,-8 1,-3 -15,-12 -2,-1 -8,-3 -12,-5l-82 -17c-175,-6 -830,-11 -919,17 -60,19 -127,61 -185,88l-527 282zm2258 -1243c50,-14 166,3 224,8 264,20 260,24 258,223 -1,76 14,157 -55,178 -46,14 -406,-18 -443,-38 -63,-32 -46,-115 -46,-194 1,-84 -15,-156 62,-177zm-1602 -56c-3,439 33,385 -274,400 -163,9 -266,29 -265,-115 1,-69 -2,-209 5,-270l66 -4 -2 269c0,36 2,60 42,61l290 -10c41,-1 60,3 64,-37 6,-70 -10,-248 6,-294l68 0zm-1885 123c98,-14 203,-23 302,-34 102,-10 215,-36 221,87 7,140 -26,168 -157,180 -74,7 -230,16 -298,34l-2 120 -70 6 4 -393zm4095 -24l528 64 -2 65 -226 -27 -3 328 -70 -11 3 -328 -230 -26 0 -65zm-3416 -42c55,-9 458,-37 502,-33l-4 62 -431 30 -1 94 386 -23 -1 62 -386 27 1 103 432 -25 -1 62 -502 33 5 -392zm2074 345c-10,-41 -1,-333 1,-394 74,-1 440,14 502,24l-1 62 -434 -21 -1 96 388 21 -2 62 -386 -17 -1 105c59,0 392,15 435,23l-1 61 -500 -22zm-171 -7c-51,6 -126,-1 -180,-1 -334,-3 -352,25 -350,-184 1,-144 -17,-213 144,-213 121,0 241,4 362,4l0 65c-94,-1 -188,-3 -282,-4 -149,-1 -154,-29 -155,117 -1,151 -28,148 120,149 68,1 212,10 272,2l0 -104 -207 -4 1 -64c58,-2 226,-3 277,7l-2 230zm-2979 -593c-1,2 -1,13 -1,16l-4 91c-13,307 -18,610 -16,918 3,618 72,1292 240,1878 162,562 371,980 691,1436l116 153c42,50 76,96 120,143l62 72c67,83 157,160 231,236 65,67 102,98 172,161 213,190 450,350 696,499 40,25 322,183 349,185 34,2 318,-154 359,-178 208,-122 298,-180 484,-314 51,-37 101,-77 149,-115 114,-89 330,-287 418,-382 99,-108 152,-163 254,-283 154,-182 257,-346 383,-548 51,-81 95,-173 141,-257 118,-219 229,-508 306,-767 185,-619 253,-1220 274,-1870 5,-174 4,-347 5,-521 2,-167 2,-358 -8,-523 -421,-81 -866,-130 -1299,-176 -869,-93 -1944,-96 -2815,-26 -223,18 -445,40 -666,66 -106,12 -560,67 -635,88l-6 18z"/>
   <path class="fil2" d="M506 410c36,-6 103,-17 117,-19 414,-61 815,-115 1237,-150 328,-27 654,-45 982,-52 326,-8 654,-5 984,7 330,13 663,36 1002,69 44,5 244,28 478,57 150,19 314,41 458,61 113,16 215,32 291,46 52,9 102,17 150,40 3,2 5,5 5,8 5,97 8,193 11,289 2,91 3,184 3,276 0,92 -1,184 -2,275 -1,92 -3,183 -5,272 -5,255 -21,512 -49,768 -27,256 -67,510 -122,760 -55,250 -125,496 -212,732 -88,237 -193,466 -319,682l-13 22c-124,216 -272,430 -432,621 -118,142 -234,268 -370,395 -138,131 -279,260 -432,375 -125,94 -256,183 -390,265 -126,78 -256,149 -388,216 -86,43 -172,82 -196,80 -64,-5 -415,-212 -472,-246 -87,-53 -171,-106 -253,-165 -81,-58 -160,-117 -238,-178 -206,-162 -370,-338 -559,-517 -176,-168 -360,-429 -493,-639 -46,-73 -90,-147 -132,-223 -150,-266 -268,-529 -364,-823 -175,-535 -270,-1118 -297,-1680 -25,-507 -36,-1388 20,-1624z"/>
   <path class="fil3" d="M3401 5684l-60 -107c-22,-38 -43,-78 -64,-118 -72,-138 -341,-654 -330,-752 15,-148 205,-658 265,-826 17,-50 82,-224 105,-260 9,19 20,103 23,130 5,38 -72,346 -83,400 -39,180 -73,362 -102,547 -16,106 -32,175 2,276 45,135 121,339 177,466 24,55 79,175 67,244zm-2294 -4610c47,4 172,-16 225,-21 150,-16 160,2 161,-87 1,-47 1,-73 -51,-68 -81,8 -273,24 -334,36l-1 140zm3438 -199c-21,16 -13,127 -13,161 -1,108 -24,95 235,113 198,14 171,48 173,-157 1,-83 10,-93 -73,-99 -49,-4 -297,-37 -322,-18zm-2539 2749c66,-64 302,-237 349,-284 -9,28 -103,158 -126,186 -35,45 -34,40 -100,61 -38,12 -84,31 -123,37zm-308 -203c-12,-7 -86,-96 -95,-112 20,-39 65,-72 125,-79l-30 191zm416 -358c54,-16 131,15 186,28 63,15 123,31 185,48 34,10 45,18 63,48 42,69 20,69 -23,152 -14,26 -28,50 -43,76 -28,49 -54,93 -83,143 -29,48 -51,105 -106,125 -55,20 -317,99 -338,118 -6,33 24,192 34,218 58,3 161,-39 198,-34 -7,0 1,-3 -8,5 -30,28 -50,52 -92,64 -207,57 -132,61 -211,-217 -24,-87 -74,-147 -39,-254 14,15 88,82 109,95 33,21 277,-62 305,-97 38,-48 207,-272 206,-328 -3,-86 -76,-91 -188,-131 -30,-11 -140,-48 -155,-59zm791 -260c20,43 48,162 60,215 29,131 28,115 -19,230 -28,67 -58,129 -86,195 -44,105 -130,279 -183,382 -69,134 -234,254 -340,363 -32,32 -41,33 -52,94 -40,239 -31,244 96,432 93,136 225,315 330,443 10,13 21,26 31,40 40,52 84,105 129,154l65 76c20,26 46,46 68,70 54,59 126,64 151,135l-193 -98c-105,-61 -401,-415 -491,-529 -101,-128 -224,-277 -306,-418 -47,-81 -27,-147 -15,-247 10,-83 16,-179 57,-235l67 -78c24,-26 46,-51 67,-79 41,-54 87,-107 129,-160 102,-129 286,-371 371,-507 57,-91 88,-118 79,-213 -6,-62 -34,-214 -15,-265zm1285 -116c64,22 106,72 152,128l66 74c62,65 271,336 308,400 63,107 48,384 42,516 -9,227 -42,404 -92,614 -24,101 -31,95 -119,160 -80,58 -166,134 -238,186 -25,18 -52,42 -77,62 -25,21 -54,44 -80,65l-191 158c-81,66 -201,159 -251,244 -17,29 -34,59 -50,89 -12,23 -37,71 -53,91 -16,-16 -88,-206 -102,-244 -44,-117 -34,-117 27,-270 33,-83 69,-166 104,-246 17,-39 94,-217 112,-240 3,74 -153,482 -146,604 3,50 29,165 49,204 34,-31 21,-63 107,-140l228 -202c13,-11 18,-19 33,-31 21,-16 48,-40 66,-57 19,-18 46,-39 68,-57l404 -336c49,-66 48,-611 46,-704 -3,-212 -30,-233 -131,-359 -37,-48 -76,-89 -116,-131 -65,-71 -56,-43 -81,-164 -15,-70 -27,-138 -41,-205 -14,-65 -37,-147 -44,-209zm-2041 -219c-9,-78 6,-97 72,-91 37,3 37,72 -10,84 -19,5 -44,12 -62,7zm1869 -213c96,-49 214,-94 317,-136 75,-31 98,-47 180,-11 78,34 229,116 303,160 48,29 98,58 143,88 48,32 92,60 139,93 72,50 101,56 113,117 39,202 43,433 29,641 -6,97 -10,108 -48,182 -56,108 -267,483 -358,568 0,-27 10,-177 17,-189l56 -45c23,-19 35,-24 51,-51 50,-79 102,-176 144,-265 70,-147 67,-161 49,-337 -12,-119 -26,-244 -54,-360 -17,-69 -41,-72 -104,-99 -49,-21 -93,-41 -143,-62 -91,-39 -163,-108 -237,-172 -37,-32 -74,-60 -114,-91 -126,-97 -101,-80 -301,-33 -61,14 -119,20 -182,2zm-896 2c0,-20 24,-55 36,-73 18,-29 45,-29 81,-37l385 -72c46,-8 56,3 91,20 40,20 39,20 49,69 6,28 16,68 18,96 3,40 -19,62 -33,87 -112,193 -120,84 -71,333 12,60 34,140 39,198 -53,-27 -64,-88 -80,-142 -17,-56 -34,-111 -51,-169 -28,-99 -27,-81 25,-149 17,-21 31,-38 48,-60 61,-81 71,-81 38,-144 -47,-90 -137,-40 -231,-3 -54,21 -106,38 -159,60 -44,19 -45,14 -92,6 -29,-6 -70,-12 -93,-20zm-1305 302c48,-2 105,-26 154,-33 29,-4 44,11 68,17 34,7 201,-36 232,-47 42,-15 84,-53 116,-75 0,26 -36,55 -51,70 -45,45 -199,92 -263,117 -61,23 -123,46 -185,67 -63,21 -160,42 -172,83 121,10 175,-1 237,62l137 159 -348 62c-84,16 -136,15 -150,64 -16,54 -24,120 -42,173 -52,-15 -113,-108 -150,-155 -14,-17 -38,-45 -21,-73l100 -109c32,-32 61,-81 68,-148 -63,23 -44,62 -93,96 -42,29 -72,57 -113,80 -24,-17 -39,-33 -34,-72 7,-52 128,-140 171,-173l263 -194c134,-91 117,-152 227,-229 29,-21 265,-163 284,-164 -10,4 -13,17 -21,25l-98 75c0,0 -2,1 -3,2 -68,50 -64,36 -77,122 -16,105 -3,81 -98,116 -73,26 -97,34 -138,82zm303 -229c19,-50 80,-18 141,-94 15,-18 23,-27 37,-43 76,-92 73,-111 168,-154 152,-70 320,-162 496,-137 10,20 -27,69 -46,101 -124,207 -80,193 -242,241 -279,83 -232,87 -554,86zm148 -277c27,-50 83,-76 133,-108 43,-29 222,-167 271,-212 30,-28 67,-116 100,-136 69,-40 793,-26 923,-22 78,3 157,7 235,14 93,8 113,16 187,52 169,84 310,159 471,251 53,30 106,57 148,94l240 241c-56,-5 -66,-11 -105,-38 -88,-59 -365,-238 -451,-249 -64,-7 -206,-8 -257,-24 -33,-10 -63,-30 -96,-45 -122,-56 -183,-103 -317,-99 -91,3 -181,2 -272,6 -72,2 -195,16 -258,-5 122,-23 264,-32 389,-44l399 -29c-7,-8 1,-3 -15,-12 -2,-1 -8,-3 -12,-5l-82 -17c-175,-6 -830,-11 -919,17 -60,19 -127,61 -185,88l-527 282zm2258 -1243c50,-14 166,3 224,8 264,20 260,24 258,223 -1,76 14,157 -55,178 -46,14 -406,-18 -443,-38 -63,-32 -46,-115 -46,-194 1,-84 -16,-156 62,-177zm-1602 -56c-3,439 33,385 -274,400 -163,9 -266,29 -265,-115 1,-69 -2,-209 5,-270l66 -4 -2 269c0,36 2,60 42,61l290 -10c41,-1 60,3 64,-37 6,-70 -10,-248 6,-294l68 0zm-1885 123c98,-14 203,-23 302,-34 102,-10 215,-36 221,87 7,140 -26,168 -157,180 -74,7 -230,16 -298,34l-2 120 -70 6 4 -393zm4095 -24l528 64 -2 65 -226 -27 -3 328 -70 -11 3 -328 -230 -26 0 -65zm-3416 -42c55,-9 458,-37 502,-33l-4 62 -431 30 -1 94 386 -23 -1 62 -386 27 1 103 432 -25 -1 62 -502 33 5 -392zm2074 345c-10,-41 -1,-333 1,-394 74,-1 440,14 503,24l-2 62 -434 -21 -1 96 388 21 -2 62 -386 -17 -1 105c59,0 392,15 435,23l-1 61 -500 -22zm-171 -7c-51,6 -126,-1 -180,-1 -334,-3 -352,25 -350,-184 1,-144 -17,-213 144,-213 121,0 241,4 362,4l0 65c-94,-1 -188,-3 -282,-4 -149,-1 -154,-29 -155,117 -1,151 -28,148 120,149 69,1 212,10 272,2l0 -104 -207 -4 2 -63c57,-3 225,-4 276,6l-2 230zm-2973 -611c75,-21 529,-76 635,-88 221,-26 443,-48 666,-66 871,-70 1946,-67 2815,26 433,46 878,95 1299,176 10,165 10,356 8,523 -1,174 0,347 -5,521 -21,650 -89,1251 -274,1870 -77,259 -188,548 -306,767 -46,84 -90,176 -141,257 -126,202 -230,366 -383,548 -102,120 -155,175 -254,283 -88,95 -304,293 -418,382 -48,38 -98,78 -149,114 -186,135 -276,193 -484,315 -41,24 -325,180 -359,178 -27,-2 -309,-160 -349,-185 -246,-149 -483,-309 -696,-499 -70,-63 -107,-94 -172,-161 -74,-76 -164,-153 -231,-236l-62 -72c-44,-47 -78,-93 -120,-143l-116 -153c-320,-456 -529,-874 -691,-1436 -168,-586 -237,-1260 -240,-1878 -2,-308 3,-611 16,-918l4 -91c0,-3 1,-14 1,-16l6 -18zm-110 -93c-12,62 -8,192 -12,263 -15,257 -13,561 -15,819 -6,921 150,1961 546,2753 153,306 330,596 533,845l189 223c13,16 21,20 36,35 75,77 157,174 240,243 67,57 140,131 223,196 102,82 200,157 315,239 103,74 220,147 339,216 41,24 332,185 366,188 35,3 320,-153 366,-178 230,-125 535,-329 737,-502l498 -473c84,-98 168,-193 251,-303 80,-105 151,-209 227,-327 36,-55 68,-112 103,-172 498,-857 674,-1907 697,-2922 8,-357 11,-736 -6,-1090 -96,-46 -1234,-181 -1347,-192 -1352,-133 -2614,-100 -3953,87l-333 52z"/>
  </g>
 </g>
</svg>
