<?xml version="1.0" encoding="UTF-8"?>
<!DOCTYPE svg PUBLIC "-//W3C//DTD SVG 1.1//EN" "http://www.w3.org/Graphics/SVG/1.1/DTD/svg11.dtd">
<!-- Creator: CorelDRAW 2019 (64-Bit) -->
<svg xmlns="http://www.w3.org/2000/svg" xml:space="preserve" width="183.784mm" height="151.565mm" version="1.1" style="shape-rendering:geometricPrecision; text-rendering:geometricPrecision; image-rendering:optimizeQuality; fill-rule:evenodd; clip-rule:evenodd"
viewBox="0 0 183.517 151.3453"
 xmlns:xlink="http://www.w3.org/1999/xlink"
 xmlns:xodm="http://www.corel.com/coreldraw/odm/2003">
 <defs>
  <style type="text/css">
   <![CDATA[
    .fil0 {fill:#96001F}
    .fil10 {fill:#13151A}
    .fil1 {fill:black}
    .fil13 {fill:url(#id0)}
    .fil2 {fill:url(#id1)}
    .fil9 {fill:url(#id2)}
    .fil3 {fill:url(#id3)}
    .fil11 {fill:url(#id4)}
    .fil8 {fill:url(#id5)}
    .fil6 {fill:url(#id6)}
    .fil14 {fill:url(#id7)}
    .fil12 {fill:url(#id8)}
    .fil7 {fill:url(#id9)}
    .fil4 {fill:url(#id10)}
    .fil5 {fill:url(#id11)}
   ]]>
  </style>
  <linearGradient id="id0" gradientUnits="userSpaceOnUse" x1="89.9221" y1="1.3022" x2="89.9221" y2="104.3197">
   <stop offset="0" style="stop-opacity:1; stop-color:#F0F2F4"/>
   <stop offset="0.25098" style="stop-opacity:1; stop-color:#EEEEF0"/>
   <stop offset="0.411765" style="stop-opacity:1; stop-color:#E2E6E7"/>
   <stop offset="0.529412" style="stop-opacity:1; stop-color:#D0D3D6"/>
   <stop offset="0.639216" style="stop-opacity:1; stop-color:#B8B9C0"/>
   <stop offset="0.741176" style="stop-opacity:1; stop-color:#97989D"/>
   <stop offset="0.839216" style="stop-opacity:1; stop-color:#707278"/>
   <stop offset="0.929412" style="stop-opacity:1; stop-color:#45484E"/>
   <stop offset="1" style="stop-opacity:1; stop-color:#212228"/>
  </linearGradient>
  <linearGradient id="id1" gradientUnits="userSpaceOnUse" x1="89.9214" y1="93.3958" x2="89.9214" y2="34.7048">
   <stop offset="0" style="stop-opacity:1; stop-color:#F0F2F4"/>
   <stop offset="0.0588235" style="stop-opacity:1; stop-color:#DDE1E6"/>
   <stop offset="0.141176" style="stop-opacity:1; stop-color:#CDD0D6"/>
   <stop offset="0.239216" style="stop-opacity:1; stop-color:#C4C8D0"/>
   <stop offset="0.439216" style="stop-opacity:1; stop-color:#BFC3CA"/>
   <stop offset="0.560784" style="stop-opacity:1; stop-color:#A4A7AD"/>
   <stop offset="0.839216" style="stop-opacity:1; stop-color:#5F626A"/>
   <stop offset="1" style="stop-opacity:1; stop-color:#36373F"/>
  </linearGradient>
  <linearGradient id="id2" gradientUnits="userSpaceOnUse" xlink:href="#id1" x1="79.1493" y1="0.8686" x2="79.1493" y2="85.0583">
  </linearGradient>
  <linearGradient id="id3" gradientUnits="userSpaceOnUse" xlink:href="#id1" x1="89.9243" y1="48.6783" x2="89.9243" y2="16.8717">
  </linearGradient>
  <linearGradient id="id4" gradientUnits="userSpaceOnUse" xlink:href="#id0" x1="89.9201" y1="1.2965" x2="89.9201" y2="104.3075">
  </linearGradient>
  <linearGradient id="id5" gradientUnits="userSpaceOnUse" xlink:href="#id1" x1="100.6963" y1="0.8678" x2="100.6963" y2="85.0575">
  </linearGradient>
  <linearGradient id="id6" gradientUnits="userSpaceOnUse" xlink:href="#id1" x1="79.7631" y1="1.2935" x2="79.7631" y2="51.7316">
  </linearGradient>
  <linearGradient id="id7" gradientUnits="userSpaceOnUse" x1="89.9231" y1="22.6666" x2="89.9231" y2="52.0193">
   <stop offset="0" style="stop-opacity:1; stop-color:#BFC3CA"/>
   <stop offset="1" style="stop-opacity:1; stop-color:#36373F"/>
  </linearGradient>
  <linearGradient id="id8" gradientUnits="userSpaceOnUse" xlink:href="#id0" x1="89.9254" y1="1.2915" x2="89.9254" y2="104.3085">
  </linearGradient>
  <linearGradient id="id9" gradientUnits="userSpaceOnUse" xlink:href="#id1" x1="100.0799" y1="1.2935" x2="100.0799" y2="51.7316">
  </linearGradient>
  <linearGradient id="id10" gradientUnits="userSpaceOnUse" xlink:href="#id1" x1="102.5741" y1="40.3378" x2="82.7163" y2="23.6736">
  </linearGradient>
  <linearGradient id="id11" gradientUnits="userSpaceOnUse" xlink:href="#id1" x1="101.0632" y1="73.0457" x2="72.107" y2="56.3232">
  </linearGradient>
 </defs>
 <g id="Layer_x0020_1">
  <metadata id="CorelCorpID_0Corel-Layer"/>
  <g id="_859733632">
   <path class="fil0" d="M91.5411 135.0083c-0.0281,-9.0278 7.248,-16.3115 16.3366,-16.3269 8.8655,0.0143 16.1476,7.2975 16.3263,16.3269 -0.1767,8.9271 -7.4586,16.2108 -16.3263,16.337 -9.0886,-0.1262 -16.3636,-7.4098 -16.3366,-16.337zm16.337 10.3187l0 0c4.9064,-0.076 8.9681,-4.6862 9.0184,-10.3187 -0.0503,-5.7405 -4.112,-10.3507 -9.0184,-10.3181 -5.1182,-0.0338 -9.1898,4.5764 -9.0277,10.3181 -0.1621,5.6319 3.9095,10.242 9.0277,10.3187zm34.8051 -19.7764l0 0 0 24.935 -6.8719 0 0 -24.935 -9.8882 0 0 -5.5789 26.2178 0 0 5.5789 -9.4577 0zm17.6186 18.0491l0 0 12.4762 0 2.5794 6.8863 8.1597 0 -12.4674 -30.5143 -8.5916 0 -12.8891 30.5143 8.1597 0 2.5731 -6.8863zm6.4564 -5.1516l0 0 -4.3002 0 4.3002 -11.179 4.2915 11.179 -4.2915 0zm-150.4283 -12.8975l0 0 0 24.935 -6.8765 0 0 -24.935 -9.4533 0 0 -5.5789 25.7874 0 0 5.5789 -9.4576 0zm11.1773 9.4577l0 0c0.0135,-9.0278 7.2859,-16.3115 16.3236,-16.3269 8.9212,0.0143 16.2051,7.2975 16.3364,16.3269 -0.1313,8.9271 -7.4151,16.2108 -16.3364,16.337 -9.0377,-0.1262 -16.3105,-7.4098 -16.3236,-16.337zm16.3236 10.3187l0 0c4.9645,-0.076 9.0229,-4.6862 9.0276,-10.3187 -0.005,-5.7405 -4.0631,-10.3507 -9.0276,-10.3181 -5.0676,-0.0338 -9.1336,4.5764 -9.0149,10.3181 -0.1187,5.6319 3.9473,10.242 9.0149,10.3187zm31.8089 5.1586l0 0 3.4342 0 0 -11.6084 12.0374 -18.9054 -7.7333 0 -7.7384 12.8875 -7.3087 -12.8875 -8.1634 0 12.0374 18.9054 0 11.6084 3.4347 0z"/>
   <path class="fil1" d="M5.5333 52.8038c0,29.1152 37.8578,52.804 84.3899,52.804 46.5312,0 84.3889,-23.6888 84.3889,-52.804 0,-29.118 -37.8577,-52.8038 -84.3898,-52.8038 -46.5316,0 -84.389,23.6858 -84.389,52.8038zm2.5896 0l0 0c0,-27.685 36.6945,-50.2095 81.8003,-50.2095 45.1044,0 81.7997,22.5245 81.7997,50.2095 0,27.6903 -36.6953,50.2143 -81.7997,50.2143 -45.1058,-0.0008 -81.8003,-22.5235 -81.8003,-50.2143z"/>
   <path class="fil1" d="M81.9491 9.599c-19.7512,1.2064 -34.0974,6.4414 -36.5426,13.3384 -0.2489,0.6946 -0.3771,1.4267 -0.3794,2.1664 0,1.1629 0.3291,2.3262 0.9817,3.4387 2.7411,4.67 11.25,8.5218 23.3585,10.5875l1.2818 0.2096 0.2152 -1.2804c1.9874,-12.1244 6.3505,-21.6582 11.9743,-26.1599l3.1867 -2.553 -4.0761 0.2527zm-33.7049 17.6373l0 0c-0.4224,-0.7181 -0.6298,-1.4266 -0.6298,-2.1237 0,-0.4405 0.0757,-0.8697 0.2321,-1.3078 1.8666,-5.2688 14.5463,-9.8706 30.7438,-11.3548 -4.6205,5.2262 -8.1735,13.6488 -10.0273,23.8804 -10.5252,-1.9471 -18.0935,-5.3008 -20.3187,-9.0941zm30.0936 11.5978l0 0c1.947,-10.9397 6.2791,-17.4747 11.5838,-17.4747 5.301,0 9.6347,6.535 11.583,17.4747l0.2535 1.4088 -1.426 0.1087c-3.3892,0.2533 -6.8942,0.3897 -10.4124,0.3897 -3.5144,0 -7.0178,-0.1364 -10.4065,-0.3897l-1.4285 -0.1087 0.2531 -1.4088zm11.5845 -14.8854l0 0c3.6243,0 6.9701,5.4275 8.733,13.8994 -2.8664,0.1869 -5.7853,0.3037 -8.7356,0.3037 -2.9462,0 -5.8668,-0.1167 -8.7295,-0.3037 1.7577,-8.4719 5.1087,-13.8994 8.7321,-13.8994zm7.081 -12.0482l0 0c5.6225,4.5017 9.9896,14.0369 11.9774,26.16l0.2123 1.2806 1.2798 -0.2099c12.1136,-2.0658 20.6275,-5.9187 23.3584,-10.5884 1.0626,-1.7948 1.2653,-3.7331 0.6069,-5.6028 -2.4441,-6.8971 -16.7904,-12.1321 -36.5404,-13.3385l-4.0709 -0.254 3.1765 2.553zm4.2562 0.5495l0 0c4.6207,5.2275 8.1684,13.6488 10.022,23.8804 10.5202,-1.9471 18.0917,-5.3015 20.3245,-9.0941 0.4117,-0.7181 0.6246,-1.4266 0.6246,-2.1237 0,-0.4405 -0.0765,-0.8697 -0.2379,-1.3078 -1.861,-5.2601 -14.54,-9.8706 -30.7333,-11.3548zm-68.3506 15.5705l0 0 1.6491 -1.376 0.4498 2.0992c1.8807,8.7425 15.0898,16.5497 33.6568,19.8775l1.0825 0.2197 -0.081 4.408c0,18.6549 4.8023,34.352 12.5359,40.9676l3.002 2.5647 -3.9429 -0.2961c-35.2983,-2.6298 -61.9201,-21.0835 -61.9201,-42.9153 0,-9.2807 4.6911,-18.1137 13.5677,-25.5493zm-10.9752 25.5493l0 0c0,-7.9578 3.8814,-15.5956 11.1701,-22.2289 3.3957,8.8342 16.0837,16.1932 34.0181,19.6174 -0.0228,1.0108 -0.0424,2.2906 -0.0424,2.2906 0,17.2973 4.1045,32.2353 10.8742,40.2953 -32.1629,-3.4323 -56.0199,-20.2317 -56.0199,-39.9743zm55.3491 -2.3333l0 0 -0.0077 0.47c0,17.3401 5.4371,30.4225 12.6471,30.4225 7.2077,0 12.6451,-13.0824 12.6451,-30.4225l-0.0175 -1.8709 -1.3908 0.119c-3.6668,0.321 -7.4423,0.4803 -11.2356,0.4803 -3.793,0 -7.5741,-0.1593 -11.2308,-0.4803l-1.3961 -0.1262 -0.0139 1.4081zm22.6794 1.39l0 0c-3.2973,0.2428 -6.6505,0.3944 -10.0399,0.3944 -3.3838,0 -6.7473,-0.1516 -10.0398,-0.3944 0.1897,16.1341 5.273,26.9148 10.0398,26.9148 4.7622,0 9.845,-10.7807 10.0399,-26.9148zm44.8697 -23.8828l0 0c-1.8785,8.7425 -15.0907,16.5492 -33.6514,19.8775l-1.0875 0.2018 0.0863 4.425c0,18.6552 -4.805,34.3529 -12.5359,40.9682l-3.0021 2.5642 3.9375 -0.2957c35.3013,-2.6297 61.9244,-21.0835 61.9244,-42.9156 0,-9.2804 -4.6968,-18.1138 -13.5737,-25.5494l-1.6432 -1.3756 -0.4542 2.0996zm1.9048 2.5972l0 0c7.2937,6.6334 11.1784,14.2711 11.1784,22.2289 0,19.7426 -23.8562,36.542 -56.0228,39.9743 6.77,-8.06 10.8746,-22.998 10.8746,-40.2953 0,0 -0.0254,-1.28 -0.0429,-2.2906 17.9284,-3.4242 30.616,-10.784 34.0128,-19.6174z"/>
   <path class="fil2" d="M145.7505 22.0776c0.1189,0.3292 0.2278,0.6645 0.3128,1.0012 0.4881,1.9398 0.3866,3.8449 -0.2452,5.7008 8.4214,6.9449 13.386,15.5102 13.386,24.7909 0,23.1639 -31.0197,41.9467 -69.2818,41.9467 -38.264,0 -69.2819,-18.7828 -69.2819,-41.9467 0,-9.2732 4.9695,-17.8455 13.3808,-24.7909 -0.6273,-1.8559 -0.7283,-3.761 -0.2403,-5.7008 0.1012,-0.368 0.2359,-0.7259 0.402,-1.0687 -11.4913,8.1867 -18.4589,18.9165 -18.4589,30.6674 0,25.658 33.2174,46.4561 74.1975,46.4561 40.9748,0 74.197,-20.7981 74.197,-46.4561 0.0027,-11.7263 -6.9382,-22.4313 -18.3681,-30.5999z"/>
   <path class="fil3" d="M100.2304 39.0621c-3.2702,0.2453 -6.717,0.3791 -10.3107,0.3791 -3.591,0 -7.0352,-0.1338 -10.3054,-0.3791l-0.0105 0 -2.1367 1.5521c3.9427,0.3438 8.1059,0.5386 12.4545,0.5386 4.3495,0 8.5122,-0.1948 12.4576,-0.5386l-2.1488 -1.5521zm37.8998 -16.2761l0 0c2.2589,7.4674 -10.0908,14.3789 -29.5537,17.1202l1.6861 -2.0594c15.7543,-2.6797 25.1117,-8.3948 22.9543,-14.4726 -2.6158,-7.3764 -21.6315,-12.7202 -43.2964,-12.7202 -21.6654,0 -40.6772,5.3426 -43.2948,12.7202 -2.1597,6.0769 7.2018,11.792 22.9518,14.4726l1.692 2.0594c-19.4704,-2.7413 -31.811,-9.6529 -29.5505,-17.1202 2.6045,-8.6078 24.0745,-14.9316 48.2034,-14.9316 24.1329,0 45.6034,6.3225 48.2079,14.9316z"/>
   <path class="fil4" d="M79.6404 39.0621c1.8082,-10.0479 5.7305,-16.3274 10.28,-16.3274 4.5544,0 8.4737,6.2795 10.2847,16.3274l0.0361 0 2.1154 1.5348c-1.7856,-13.2694 -6.6764,-21.7493 -12.433,-21.7493 -5.7605,0 -10.6491,8.4799 -12.4318,21.7493l2.1142 -1.5348 0.0344 0z"/>
   <path class="fil5" d="M102.9973 48.1153l-1.7296 3.1284c0,0.2278 0.0102,0.4623 0.0102,0.6996 0,16.6552 -5.093,29.2835 -11.3568,29.2835 -6.2695,0 -11.3523,-12.6296 -11.3523,-29.2835 0,-0.2626 0.0052,-0.5234 0.0104,-0.7756l-1.7324 -3.0524c-0.0508,1.2698 -0.0762,2.54 -0.076,3.8105 0,18.883 5.8878,33.1868 13.1528,33.1868 7.265,0 13.158,-14.3038 13.158,-33.1868 -0.0027,-1.2705 -0.0309,-2.5407 -0.0843,-3.8105z"/>
   <path class="fil6" d="M71.2972 39.9139c2.4885,-18.4432 9.8858,-32.0608 18.6261,-32.0608 -9.3701,0 -17.3565,12.0645 -20.3204,30.03l1.6688 2.0309 0.0256 0z"/>
   <path class="fil7" d="M108.5509 39.9139l0.0174 0 1.6693 -2.0309c-2.9586,-17.9655 -10.9504,-30.03 -20.3152,-30.03 8.74,0.0013 16.1424,13.6176 18.6285,32.0608z"/>
   <path class="fil8" d="M111.4007 49.8855l-2.124 -2.5368 -0.0176 0c0.119,2.0153 0.1871,4.0642 0.1871,6.1445 0,25.2063 -8.7426,45.639 -19.523,45.639 12.0873,0 21.5462,-18.9507 21.5462,-45.639 0,-1.2207 -0.0254,-2.4185 -0.0687,-3.6077z"/>
   <path class="fil9" d="M70.4046 53.4939c0,-2.0808 0.0678,-4.1292 0.1841,-6.1445l-0.0139 0 -2.1298 2.5288c-0.0446,1.2047 -0.0687,2.4099 -0.0701,3.6156 0,26.6879 9.4658,45.639 21.5487,45.639 -10.7765,0 -19.5191,-20.4335 -19.5191,-45.639z"/>
   <path class="fil10" d="M145.8181 28.7793c3.22,2.6555 5.9358,5.5531 8.0596,8.631 -0.7345,-4.8949 -2.6832,-9.5284 -5.6643,-13.4791 -0.8046,-0.6396 -1.627,-1.2578 -2.4641,-1.8522 0.1201,0.3279 0.229,0.6632 0.3128,1.0011 0.4893,1.9386 0.3878,3.8429 -0.244,5.6992zm-111.7963 0l0 0c-0.6275,-1.8563 -0.7282,-3.7606 -0.2402,-5.7004 0.1009,-0.368 0.2355,-0.7259 0.4021,-1.07 -0.8636,0.6232 -1.714,1.264 -2.5515,1.9223 -2.9778,3.9536 -4.9245,8.5855 -5.6646,13.4791 2.1239,-3.0778 4.8348,-5.9763 8.0541,-8.631z"/>
   <path class="fil11" d="M6.8283 52.8038c0,-28.4434 37.1999,-51.5073 83.0949,-51.5073 45.888,0 83.0886,23.0639 83.0886,51.5073 0,28.4492 -37.2007,51.5037 -83.0886,51.5037 -45.895,-0.0004 -83.0949,-23.0541 -83.0949,-51.5037zm83.094 46.3291l0 0c40.9754,0 74.1977,-20.7978 74.1977,-46.4561 0,-25.6606 -33.2224,-46.4656 -74.1977,-46.4656 -40.9809,0 -74.2,20.8063 -74.2,46.4656 0,25.6583 33.2197,46.4561 74.2,46.4561z"/>
   <path class="fil12" d="M70.4046 53.4939c0,-24.9413 8.7425,-45.6395 19.5178,-45.6395 10.7804,0 19.5239,20.6982 19.5239,45.6395 0,25.2064 -8.7435,45.639 -19.5239,45.639 -10.7804,0 -19.5178,-20.4335 -19.5178,-45.639zm19.5178 31.6187l0 0c7.2657,0 13.1587,-14.3038 13.1587,-33.1788 0,-19.5885 -5.8934,-33.085 -13.1587,-33.085 -7.2652,0 -13.1527,13.4965 -13.1527,33.085 0,18.875 5.8874,33.1788 13.1527,33.1788z"/>
   <path class="fil13" d="M33.7816 23.0789c2.1417,-8.4789 28.0418,-20.82 56.1407,-20.82 28.0961,0 53.1074,8.8168 56.1411,20.82 3.3966,13.4531 -21.5643,25.6283 -56.1411,25.6283 -34.5827,0 -59.5421,-12.1747 -56.1407,-25.6283zm56.1407 -15.2245l0 0c-24.1289,0 -45.5989,6.3238 -48.2034,14.9316 -2.9186,9.6425 18.5115,18.3668 48.2034,18.3668 29.6979,0 51.1239,-8.7254 48.2079,-18.3668 -2.6045,-8.6091 -24.0738,-14.9316 -48.2079,-14.9316z"/>
   <path class="fil14" d="M76.8201 48.09l0.0151 0.0104 1.7828 3.1433c3.6287,0.3099 7.4026,0.4872 11.3043,0.4872 3.9201,0 7.7025,-0.1765 11.3556,-0.4952l1.7352 -3.1366 0.0103 -0.0103c-4.1728,0.3969 -8.5481,0.6168 -13.0998,0.6168 -4.3747,0.0027 -8.7476,-0.2028 -13.1035,-0.6156zm69.5374 -22.1026l0 0c-0.4469,9.6195 -15.232,18.1418 -37.0888,21.3537l0.008 0.0076 2.1316 2.5476c21.3866,-3.8442 35.4547,-13.2873 34.9492,-23.9089zm-112.869 0l0 0c-0.5057,10.632 13.5618,20.0639 34.9439,23.9089l2.1372 -2.5476 0.0052 -0.0076c-21.8607,-3.2111 -36.6363,-11.7338 -37.0862,-21.3537z"/>
  </g>
 </g>
</svg>
